<svg width="80" height="80" viewBox="0 0 80 80" fill="none" xmlns="http://www.w3.org/2000/svg">
<path d="M66.6668 0C59.3149 0 53.3335 5.98141 53.3335 13.3333C53.3335 19.7105 62.7818 32.6175 64.9955 35.5552C64.9949 36.5041 64.9955 37.4358 64.9726 38.2909C64.9482 39.2105 65.6741 39.9772 66.5952 40.0016C66.6099 40.0016 66.6246 40.0016 66.6408 40.0016C67.5393 40.0016 68.2815 39.2837 68.3058 38.3789C68.3288 37.5014 68.3282 36.5436 68.3288 35.5677C70.5279 32.6502 80.0001 19.718 80.0001 13.3333C80.0001 5.98141 74.0186 0 66.6668 0ZM66.6668 16.6667C64.8293 16.6667 63.3335 15.1709 63.3335 13.3334C63.3335 11.4959 64.8293 10.0002 66.6668 10.0002C68.5043 10.0002 70.0001 11.4958 70.0001 13.3333C70.0001 15.1709 68.5043 16.6667 66.6668 16.6667Z" fill="black"/>
<path d="M51.0154 48.0354C48.2648 49.5964 46.7365 52.3062 45.8249 54.2073C45.4262 55.0375 45.776 56.0336 46.6062 56.4306C46.839 56.5429 47.0848 56.595 47.3256 56.595C47.9473 56.595 48.5431 56.2467 48.8295 55.6494C49.9866 53.2356 51.1684 51.7822 52.6624 50.9325C53.4616 50.4784 53.7432 49.4611 53.2874 48.6603C52.8351 47.8597 51.821 47.5781 51.0154 48.0354Z" fill="black"/>
<path d="M35.8483 72.2314C34.1783 73.5547 32.2806 74.5508 30.0442 75.2783C29.1686 75.5631 28.69 76.5039 28.9748 77.3795C29.2044 78.0827 29.857 78.5303 30.5602 78.5303C30.7311 78.5303 30.9052 78.5042 31.0761 78.4489C33.6591 77.6091 35.9605 76.3966 37.9186 74.8453C38.6397 74.2723 38.7617 73.2242 38.1905 72.5031C37.6142 71.7839 36.5676 71.6553 35.8483 72.2314Z" fill="black"/>
<path d="M45.246 60.0684C44.3833 59.7331 43.423 60.1613 43.0894 61.0206C42.3424 62.9509 41.4082 65.2019 40.1483 67.2641C39.6682 68.0502 39.9172 69.0756 40.7018 69.5558C40.9737 69.7219 41.273 69.8 41.5693 69.8C42.1308 69.8 42.6793 69.5167 42.9935 69.0025C44.3901 66.7141 45.3974 64.2922 46.1982 62.2252C46.5302 61.3672 46.1038 60.402 45.246 60.0684Z" fill="black"/>
<path d="M66.0483 43.9096C65.2914 43.3969 64.2514 43.5938 63.7337 44.3555C63.1853 45.1661 62.0622 46.281 58.6653 46.5853C57.7489 46.6683 57.0719 47.4772 57.1548 48.3952C57.233 49.2611 57.9605 49.9121 58.8134 49.9121C58.8639 49.9121 58.9144 49.9105 58.9648 49.9055C62.5733 49.5816 65.0358 48.3772 66.4942 46.2238C67.0103 45.4622 66.81 44.4255 66.0483 43.9096Z" fill="black"/>
<path d="M23.9492 76.6883C29.2081 71.0802 40 58.1783 40 46.6667C40 35.4525 31.2142 26.6667 20 26.6667C8.78578 26.6667 0 35.4525 0 46.6667C0 61.4503 17.8231 78.5645 18.8192 79.5089C18.8192 79.5089 18.8233 79.513 18.8252 79.5148C18.8306 79.52 18.8516 79.5403 18.8559 79.5444C18.9248 79.6098 19.0108 79.6402 19.0872 79.6914C19.1817 79.7551 19.2672 79.8303 19.3742 79.8739C19.575 79.9555 19.7866 80 20 80C21.2142 80 22.3681 79.9577 23.4619 79.8747C24.3798 79.8047 25.0683 79.0055 24.9983 78.0875C24.9483 77.4306 24.5231 76.9183 23.9492 76.6883ZM20 56.6667C14.4856 56.6667 10 52.1811 10 46.6667C10 41.1523 14.4856 36.6667 20 36.6667C25.5144 36.6667 30 41.1523 30 46.6667C30 52.1809 25.5144 56.6667 20 56.6667Z" fill="black"/>
</svg>
