<svg width="44" height="44" viewBox="0 0 44 44" fill="none" xmlns="http://www.w3.org/2000/svg">
<path d="M30.8763 14.1428H13.124L22.0001 21.751L30.8763 14.1428Z" fill="black"/>
<path d="M21.9999 23.5715C21.8123 23.5715 21.6309 23.5043 21.4885 23.3819L11.7856 15.0652V29.8572H32.2142V15.0652L22.5113 23.3819C22.369 23.5043 22.1875 23.5715 21.9999 23.5715Z" fill="black"/>
<path d="M22 0C9.84982 0 0 9.84982 0 22C0 34.1502 9.84982 44 22 44C34.1502 44 44 34.1502 44 22C43.9862 9.85557 34.1444 0.0138114 22 0ZM33.7857 30.6429C33.7857 31.0768 33.4339 31.4286 33 31.4286H11C10.5661 31.4286 10.2143 31.0768 10.2143 30.6429V13.3571C10.2143 12.9232 10.5661 12.5714 11 12.5714H33C33.4339 12.5714 33.7857 12.9232 33.7857 13.3571V30.6429Z" fill="black"/>
</svg>
