<svg width="56" height="54" viewBox="0 0 56 54" fill="none" xmlns="http://www.w3.org/2000/svg">
<path d="M47.915 38.0788C47.9086 38.0685 47.9023 38.0582 47.8958 38.0479C47.8491 37.9737 47.8011 37.9002 47.752 37.8272C47.7251 37.7869 47.6979 37.7467 47.6702 37.7069C47.6366 37.6585 47.6027 37.6103 47.568 37.5624C47.5233 37.5003 47.4777 37.4389 47.4315 37.3779C47.4177 37.3598 47.4048 37.3412 47.391 37.3232C47.3811 37.3104 47.3707 37.2983 47.3608 37.2855C47.3051 37.2139 47.2482 37.1434 47.1904 37.0735C47.1702 37.0491 47.1502 37.0245 47.1299 37.0003C47.0723 36.9322 47.0135 36.8651 46.954 36.7987C46.9292 36.7709 46.9047 36.743 46.8797 36.7156C46.8301 36.6614 46.7792 36.6083 46.7283 36.5554C46.6903 36.5157 46.6527 36.4758 46.6141 36.4369C46.5851 36.4078 46.5552 36.3795 46.5258 36.3509C45.3994 35.2453 44.0113 34.438 42.4485 33.9918C42.4217 33.9841 42.3945 33.9778 42.367 33.9729C42.3667 33.9729 34.9924 32.6446 34.9921 32.6445C34.9791 32.6422 34.966 32.6415 34.953 32.6395C34.6079 32.5851 34.2554 32.6299 33.939 32.7643C33.6823 32.4586 33.5131 32.0388 33.5131 31.6509V30.3563C33.9792 30.0678 34.4318 29.7435 34.8687 29.3787C36.6962 27.853 37.8471 25.6507 38.0954 23.2483C39.4373 23.1881 40.5097 22.1109 40.5097 20.7953V18.9508C40.5097 18.205 40.165 17.5148 39.5847 17.0541V12.814C42.2511 11.5399 42.8306 10.0543 42.8306 9.00619C42.8306 7.20773 41.103 4.95661 38.3221 3.13116C36.5405 1.96182 32.8104 0 27.846 0C22.8816 0 19.1516 1.96182 17.37 3.13116C14.5891 4.9565 12.8616 7.20763 12.8616 9.00619C12.8616 10.0543 13.441 11.5399 16.1075 12.814V17.0541C15.5273 17.5148 15.1825 18.205 15.1825 18.9508V20.7953C15.1825 22.1109 16.2549 23.1881 17.5967 23.2483C17.8449 25.6507 18.996 27.8531 20.8235 29.3787C21.2603 29.7435 21.7129 30.0678 22.179 30.3563V31.6509C22.179 32.0388 22.0099 32.4585 21.7532 32.7642C21.4248 32.6246 21.0573 32.5799 20.7 32.6445L13.3253 33.9729C13.2977 33.9778 13.2705 33.9841 13.2438 33.9918C11.6817 34.4378 10.2943 35.2445 9.16803 36.3492C9.1379 36.3786 9.10744 36.4076 9.07775 36.4373C9.03968 36.4756 9.00258 36.5151 8.96517 36.5541C8.91372 36.6077 8.86237 36.6613 8.81212 36.716C8.78743 36.743 8.76328 36.7706 8.73881 36.7979C8.67898 36.8647 8.61992 36.9321 8.56216 37.0005C8.54182 37.0246 8.52202 37.0491 8.5019 37.0733C8.44403 37.1434 8.38703 37.2139 8.33134 37.2855C8.32144 37.2983 8.311 37.3103 8.3011 37.3232C8.28718 37.3412 8.27434 37.3598 8.26064 37.3779C8.21441 37.4389 8.16883 37.5003 8.12413 37.5624C8.08943 37.6104 8.05538 37.6587 8.02177 37.7071C7.99425 37.7468 7.96717 37.7868 7.9403 37.827C7.89124 37.9001 7.84316 37.9737 7.79628 38.0479C7.78987 38.0581 7.78345 38.0684 7.77714 38.0786C6.87551 39.5192 6.40137 41.1551 6.40137 42.8612V43.8256C6.40137 44.2627 6.76674 44.6169 7.21739 44.6169C7.66804 44.6169 8.03341 44.2626 8.03341 43.8256V42.8612C8.03341 42.09 8.15132 41.3365 8.37844 40.6165C8.85868 40.9868 9.44149 41.1841 10.0472 41.1841C10.1441 41.1841 10.2416 41.179 10.3392 41.1688C11.0537 41.0945 11.6957 40.7548 12.1468 40.2124L13.0348 39.1445C13.4859 38.6021 13.6921 37.9217 13.6156 37.2289C13.5547 36.6783 13.3204 36.1725 12.9462 35.7684C13.1807 35.6759 13.4202 35.5924 13.6657 35.521L18.3714 34.6735L22.1054 39.7399C22.4791 40.2468 23.0643 40.5263 23.6713 40.5263C23.9259 40.5263 24.1844 40.4771 24.4326 40.3749L24.6811 40.2725L25.7678 41.4974L24.2005 52.4174H13.9459V46.0015C13.9459 45.5644 13.5805 45.2102 13.1299 45.2102C12.6792 45.2102 12.3139 45.5644 12.3139 46.0015V52.4174H9.04957C8.48928 52.4174 8.03363 51.9755 8.03363 51.4324V47.5075C8.03363 47.0704 7.66826 46.7162 7.21761 46.7162C6.76696 46.7162 6.40159 47.0705 6.40159 47.5075V51.4324C6.40159 52.8481 7.5895 54 9.04968 54H46.6428C48.1029 54 49.2909 52.8481 49.2909 51.4324V42.8614C49.2906 41.1552 48.8166 39.5194 47.915 38.0788ZM11.7642 38.1514L10.8762 39.2194C10.6988 39.4328 10.4463 39.5663 10.1653 39.5956C9.88463 39.6247 9.60824 39.5462 9.38819 39.3741L9.04762 39.1079C9.12071 38.9816 9.19729 38.8575 9.27713 38.7359C9.278 38.7346 9.27909 38.7332 9.27996 38.7317C9.34848 38.6275 9.4206 38.526 9.49402 38.4255C9.51632 38.3952 9.53851 38.3648 9.56125 38.3346C9.62673 38.2477 9.69406 38.1624 9.76313 38.0784C9.78097 38.0567 9.79848 38.0347 9.81654 38.0132C9.89453 37.9204 9.97502 37.83 10.0574 37.741C10.0814 37.715 10.1059 37.6895 10.1302 37.6638C10.2118 37.5781 10.2947 37.4936 10.3803 37.4117C10.3876 37.4046 10.3948 37.3973 10.4022 37.3903C10.7177 37.0902 11.0598 36.8153 11.4261 36.5688L11.6049 36.7086C11.8249 36.8806 11.9628 37.1254 11.9929 37.398C12.0228 37.6704 11.9418 37.9378 11.7642 38.1514ZM44.0873 36.7084L44.2662 36.5685C44.6325 36.8151 44.9745 37.09 45.2901 37.39C45.2975 37.3971 45.3045 37.4044 45.3119 37.4115C45.3975 37.4935 45.4804 37.578 45.562 37.6636C45.5864 37.6893 45.6108 37.7148 45.6349 37.7408C45.7172 37.8297 45.7977 37.9203 45.8757 38.0129C45.8938 38.0345 45.9113 38.0565 45.9291 38.0782C45.9982 38.1622 46.0655 38.2476 46.131 38.3344C46.1537 38.3645 46.176 38.395 46.1982 38.4253C46.2716 38.5258 46.3438 38.6274 46.4123 38.7315C46.4133 38.7329 46.4142 38.7342 46.4151 38.7357C46.4951 38.8573 46.5716 38.9814 46.6446 39.1077L46.304 39.3739C46.0839 39.5459 45.8077 39.6244 45.527 39.5954C45.2459 39.5662 44.9934 39.4326 44.8159 39.2191L43.9279 38.1512C43.5615 37.7108 43.6332 37.0636 44.0873 36.7084ZM34.3442 34.3878C34.3452 34.387 34.3463 34.3862 34.3474 34.3853L34.5609 34.2305C34.5989 34.203 34.6475 34.1923 34.6939 34.2005L35.5498 34.3547L32.259 38.8198C32.1766 38.9316 32.028 38.9721 31.8976 38.9184L29.4715 37.9191L34.3442 34.3878ZM27.846 37.1213L23.0907 33.675C23.54 33.1032 23.8112 32.3753 23.8112 31.6509V31.1876C25.0699 31.6989 26.4149 31.9663 27.837 31.9817C27.84 31.9817 27.8431 31.9817 27.8461 31.9817C27.8492 31.9817 27.8522 31.9817 27.8553 31.9817C29.2774 31.9662 30.6223 31.6988 31.8811 31.1876V31.6509C31.8811 32.3754 32.1523 33.1032 32.6014 33.675L27.846 37.1213ZM29.4345 39.6232L28.6912 40.4612H27.0012L26.2578 39.6232L27.8461 38.969L29.4345 39.6232ZM16.1075 11.0103C15.0587 10.3834 14.4937 9.69089 14.4937 9.00608C14.4937 7.57972 16.4589 5.64015 18.2849 4.44161C19.9117 3.37395 23.317 1.58256 27.846 1.58256C32.375 1.58256 35.7803 3.37395 37.4071 4.44171C39.2331 5.64026 41.1983 7.57983 41.1983 9.00619C41.1983 9.69089 40.6333 10.3835 39.5845 11.0104V9.5715C39.5845 8.45406 38.8045 7.48027 37.6875 7.20341C35.5748 6.67986 31.4204 5.80152 27.3351 5.79994C27.3314 5.79994 27.3284 5.79994 27.3247 5.79994C23.787 5.79994 20.2723 6.5552 17.9464 7.18907C16.8637 7.48417 16.1075 8.45174 16.1075 9.54197V11.0103ZM18.9377 13.7884C18.9262 13.7813 18.9146 13.7743 18.9033 13.7673C18.8504 13.7345 18.7995 13.7014 18.75 13.6683C18.7299 13.6548 18.71 13.6413 18.6904 13.6277C18.6499 13.5999 18.6107 13.5718 18.5726 13.5438C18.5464 13.5244 18.5211 13.505 18.496 13.4856C18.466 13.4623 18.4365 13.4391 18.4083 13.4158C18.3781 13.3909 18.3495 13.3662 18.3215 13.3413C18.3003 13.3226 18.279 13.304 18.259 13.2854C18.227 13.2554 18.1971 13.2256 18.1681 13.1957C18.1542 13.1815 18.1396 13.1671 18.1263 13.1529C18.1249 13.1513 18.1237 13.1497 18.1223 13.1483H31.8228C32.2734 13.1483 32.6388 12.794 32.6388 12.357C32.6388 11.92 32.2734 11.5658 31.8228 11.5658H17.7396V9.54207C17.7396 9.15775 18.0062 8.81666 18.388 8.71267C20.6154 8.10559 23.9726 7.3825 27.3247 7.3825C27.3277 7.3825 27.3313 7.3825 27.3343 7.3825C31.2414 7.38408 35.2448 8.23152 37.2833 8.73671C37.6772 8.83427 37.9523 9.17757 37.9523 9.5715V11.5657H35.7638C35.3131 11.5657 34.9477 11.92 34.9477 12.3569C34.9477 12.7941 35.3131 13.1483 35.7639 13.1483H37.5702C37.5688 13.1498 37.5676 13.1514 37.5661 13.1529C37.5529 13.1671 37.5383 13.1815 37.5244 13.1957C37.4952 13.2256 37.4654 13.2554 37.4334 13.2854C37.4134 13.304 37.3921 13.3226 37.371 13.3413C37.3429 13.3662 37.3143 13.3909 37.2842 13.4158C37.2559 13.4391 37.2264 13.4623 37.1964 13.4856C37.1714 13.505 37.1461 13.5244 37.1198 13.5438C37.0818 13.5718 37.0425 13.5999 37.002 13.6277C36.9825 13.6412 36.9626 13.6548 36.9424 13.6683C36.8928 13.7014 36.842 13.7345 36.7892 13.7673C36.7779 13.7743 36.7663 13.7813 36.7548 13.7884C36.4156 13.9953 36.0115 14.1949 35.5497 14.3801C35.54 14.384 35.5313 14.3895 35.5218 14.3937C33.7734 15.0926 31.146 15.6207 27.8462 15.6207C24.5465 15.6207 21.919 15.0926 20.1706 14.3937C20.1611 14.3895 20.1524 14.384 20.1428 14.3801C19.6809 14.1949 19.2768 13.9953 18.9377 13.7884ZM19.0147 15.6271V17.1686C18.566 16.9431 18.112 16.8218 17.7397 16.757V14.9182C18.0898 15.1594 18.5107 15.3976 19.0147 15.6271ZM36.6775 15.627C37.1814 15.3976 37.6023 15.1594 37.9524 14.9182V16.7568C37.5802 16.8216 37.1262 16.943 36.6775 17.1685V15.627ZM21.8884 28.1795C20.217 26.7842 19.2299 24.6932 19.1801 22.4426C19.1706 22.0124 18.8081 21.6683 18.3643 21.6683H17.715C17.2186 21.6683 16.8146 21.2767 16.8146 20.7953V18.9508C16.8146 18.6854 16.9381 18.4394 17.1457 18.2755C17.4334 18.3002 17.9705 18.3838 18.4261 18.6644C18.4307 18.6672 18.4351 18.67 18.4397 18.6728C18.504 18.7131 18.5664 18.7575 18.6263 18.8061C18.6333 18.8117 18.6403 18.8174 18.6471 18.8232C18.6763 18.8476 18.7049 18.8727 18.7326 18.8993C18.7569 18.9225 18.7822 18.9441 18.8081 18.9648C18.8157 18.9709 18.8234 18.9766 18.8312 18.9825C18.8507 18.9973 18.8706 19.0115 18.891 19.0249C18.899 19.0301 18.9069 19.0355 18.915 19.0406C18.9427 19.0579 18.9706 19.0742 18.9994 19.0889C18.9995 19.089 18.9998 19.0891 18.9999 19.0892C19.0291 19.1041 19.059 19.1174 19.0894 19.1296C19.0978 19.133 19.1063 19.136 19.1147 19.1392C19.1378 19.148 19.161 19.1559 19.1845 19.163C19.1933 19.1658 19.202 19.1685 19.2109 19.1709C19.2417 19.1796 19.2727 19.1872 19.304 19.1932C19.3045 19.1933 19.305 19.1934 19.3055 19.1935C19.3377 19.1996 19.3702 19.204 19.4029 19.2073C19.4117 19.2083 19.4205 19.2088 19.4292 19.2094C19.4539 19.2114 19.4787 19.2126 19.5036 19.2129C19.5093 19.213 19.5148 19.2137 19.5204 19.2137C19.5239 19.2137 19.5276 19.2131 19.5312 19.2131C19.5633 19.2128 19.5955 19.2116 19.6277 19.2086C19.6286 19.2085 19.6295 19.2085 19.6302 19.2085C19.6632 19.2053 19.6961 19.2004 19.729 19.1943C19.7382 19.1926 19.7475 19.1905 19.7567 19.1886C19.7811 19.1834 19.8053 19.1775 19.8296 19.1708C19.8392 19.1682 19.8487 19.1657 19.8583 19.1627C19.8905 19.1528 19.9225 19.142 19.9541 19.1293C20.3749 18.959 20.6467 18.5637 20.6467 18.122V16.2296C22.748 16.8713 25.3317 17.2031 27.846 17.2031C30.3603 17.2031 32.944 16.8713 35.0453 16.2296V18.122C35.0453 18.5637 35.3171 18.9591 35.7379 19.1293C35.7696 19.1422 35.8018 19.153 35.8341 19.1629C35.8433 19.1657 35.8524 19.1681 35.8615 19.1707C35.8863 19.1776 35.9113 19.1837 35.9363 19.1889C35.945 19.1907 35.9537 19.1927 35.9625 19.1943C36.0285 19.2065 36.0951 19.2127 36.1614 19.2132C36.1648 19.2132 36.1683 19.2138 36.1717 19.2138C36.1769 19.2138 36.1821 19.2131 36.1874 19.213C36.213 19.2127 36.2384 19.2114 36.2639 19.2094C36.2722 19.2088 36.2804 19.2083 36.2887 19.2074C36.354 19.2008 36.4185 19.1886 36.4816 19.1708C36.4902 19.1684 36.4986 19.1658 36.5072 19.1631C36.5309 19.156 36.5543 19.1479 36.5776 19.1391C36.586 19.1359 36.5945 19.1329 36.6027 19.1295C36.6331 19.1173 36.6631 19.104 36.6924 19.0891C36.6926 19.089 36.6928 19.0889 36.693 19.0888C36.7217 19.0741 36.7497 19.0578 36.7772 19.0406C36.7854 19.0355 36.7933 19.03 36.8015 19.0248C36.8217 19.0114 36.8416 18.9972 36.8611 18.9825C36.8689 18.9766 36.8767 18.9708 36.8843 18.9647C36.9102 18.9439 36.9356 18.9224 36.9597 18.8992C36.9871 18.8728 37.0156 18.848 37.0445 18.8239C37.052 18.8175 37.0596 18.8113 37.0672 18.8051C37.094 18.7834 37.121 18.7624 37.1488 18.7424C37.1514 18.7405 37.1538 18.7386 37.1564 18.7367C37.1864 18.7153 37.217 18.6953 37.2479 18.6758C37.2561 18.6705 37.2645 18.6654 37.2729 18.6603C37.3004 18.6435 37.3283 18.6273 37.3562 18.6119C37.3602 18.6096 37.3643 18.6072 37.3684 18.605C37.4003 18.5878 37.4324 18.5716 37.4647 18.5561C37.4727 18.5522 37.4808 18.5485 37.4888 18.5447C37.5177 18.5312 37.5468 18.5181 37.5758 18.5059C37.5798 18.5042 37.5838 18.5024 37.5878 18.5007C37.6213 18.4868 37.6548 18.4738 37.6882 18.4615C37.6942 18.4592 37.7 18.4571 37.706 18.455C37.7378 18.4435 37.7694 18.4327 37.801 18.4225C37.8027 18.422 37.8045 18.4214 37.8062 18.4209C37.8416 18.4096 37.8767 18.3991 37.9114 18.3894C37.9127 18.3891 37.914 18.3887 37.9153 18.3884C38.1639 18.3192 38.3916 18.2887 38.5465 18.2753C38.7543 18.4393 38.8777 18.6852 38.8777 18.9507V20.7952C38.8777 21.2766 38.4738 21.6682 37.9773 21.6682H37.328C36.8841 21.6682 36.5217 22.0123 36.5122 22.4425C36.4624 24.6931 35.4753 26.7841 33.804 28.1794C32.0709 29.6263 30.0666 30.3731 27.8463 30.399C25.6258 30.3732 23.6217 29.6265 21.8884 28.1795ZM23.7944 38.9184C23.6638 38.972 23.5153 38.9314 23.4331 38.8199L20.1422 34.3548L20.9982 34.2006C21.0447 34.1923 21.0931 34.2031 21.1311 34.2306L21.3446 34.3853C21.3458 34.3862 21.3469 34.387 21.3481 34.3879L26.2204 37.9191L23.7944 38.9184ZM25.8482 52.4174L27.3369 42.0437H28.3551L29.8439 52.4174H25.8482ZM46.6427 52.4174H43.3786V46.0015C43.3786 45.5644 43.0132 45.2102 42.5626 45.2102C42.1119 45.2102 41.7465 45.5644 41.7465 46.0015V52.4174H31.4919L29.9246 41.4974L31.0112 40.2725L31.2598 40.3749C31.508 40.4771 31.7663 40.5263 32.021 40.5263C32.6278 40.5263 33.2133 40.2469 33.587 39.7398L37.3209 34.6735L42.0265 35.521C42.272 35.5924 42.5117 35.6759 42.7462 35.7684C41.8832 36.7032 41.8191 38.1367 42.6571 39.1444L43.5452 40.2124C43.9963 40.7548 44.6382 41.0944 45.3527 41.1687C45.4504 41.1789 45.5479 41.184 45.6448 41.184C46.2503 41.184 46.8332 40.9866 47.3135 40.6164C47.5406 41.3364 47.6585 42.0899 47.6585 42.8611V51.4324H47.6586C47.6587 51.9755 47.2028 52.4174 46.6427 52.4174Z" fill="black"/>
<path d="M38.9852 45.2102H34.6876C33.9525 45.2102 33.3545 45.7901 33.3545 46.5028V48.7228C33.3545 49.4356 33.9525 50.0155 34.6876 50.0155H38.9852C39.7203 50.0155 40.3182 49.4356 40.3182 48.7228V46.5028C40.3182 45.79 39.7202 45.2102 38.9852 45.2102ZM34.9864 48.4328V46.7927H38.6859V48.4328H34.9864Z" fill="black"/>
<path d="M21.0046 45.2101H16.707C15.972 45.2101 15.374 45.79 15.374 46.5028V48.7228C15.374 49.4355 15.9721 50.0154 16.707 50.0154H21.0046C21.7397 50.0154 22.3377 49.4355 22.3377 48.7228V46.5028C22.3378 45.79 21.7397 45.2101 21.0046 45.2101ZM20.7057 48.4328H17.0062V46.7927H20.7057V48.4328Z" fill="black"/>
</svg>
