<svg width="50" height="54" viewBox="0 0 50 54" fill="none" xmlns="http://www.w3.org/2000/svg">
<g clip-path="url(#clip0)">
<path d="M49.4469 0.308959C49.201 0.0426499 48.8428 -0.0616587 48.5067 0.0360054L5.87092 12.414C5.535 12.5116 5.27266 12.7958 5.18262 13.1598C5.09258 13.5238 5.18865 13.9121 5.43454 14.1786L14.8384 24.3676V37.5922C14.8384 37.9461 15.0024 38.2766 15.2748 38.4719C15.4365 38.5878 15.6236 38.6469 15.812 38.6469C15.9409 38.6469 16.0705 38.6191 16.1929 38.5627L24.4345 34.765L36.646 47.996C36.831 48.1964 37.0796 48.3049 37.3344 48.3049C37.4184 48.3049 37.5029 48.2932 37.5863 48.269C37.9222 48.1714 38.1845 47.8872 38.2746 47.5232L42.8527 29.011C42.9919 28.4483 42.6837 27.8701 42.1644 27.7193C41.6447 27.5686 41.1114 27.9025 40.9722 28.4651L36.8304 45.2128L22.2676 29.4338L46.9344 4.35558L43.24 19.2947C43.1008 19.8574 43.409 20.4357 43.9283 20.5865C44.448 20.7376 44.9812 20.4033 45.1204 19.8407L49.6987 1.32779C49.7888 0.963814 49.6928 0.575478 49.4469 0.308959ZM20.2026 28.6407C20.1477 28.6965 20.099 28.759 20.0574 28.827L16.7853 34.1734V24.5075L40.3855 8.12103L20.2026 28.6407ZM42.9554 3.8314L15.9462 22.5847L8.00329 13.9788L42.9554 3.8314ZM18.4838 35.2147L21.022 31.0676L22.9501 33.1567L18.4838 35.2147Z" fill="black"/>
<path d="M9.06556 51.8907H7.50809C6.97056 51.8907 6.53467 52.3629 6.53467 52.9454C6.53467 53.5279 6.97056 54.0001 7.50809 54.0001H9.06556C9.60308 54.0001 10.039 53.5279 10.039 52.9454C10.039 52.3629 9.60308 51.8907 9.06556 51.8907Z" fill="black"/>
<path d="M7.92172 42.6625C7.70134 42.1312 7.12527 41.8939 6.63466 42.1329L5.21416 42.8248C4.72385 43.0636 4.50512 43.6879 4.7254 44.2192C4.88757 44.6102 5.24238 44.8417 5.61384 44.8417C5.7472 44.8417 5.88289 44.8118 6.01246 44.7486L7.43296 44.0568C7.92328 43.818 8.142 43.1937 7.92172 42.6625Z" fill="black"/>
<path d="M13.2484 40.0676C13.0278 39.5365 12.4519 39.2992 11.9613 39.5382L10.5408 40.2301C10.0505 40.4689 9.83178 41.0932 10.0521 41.6245C10.2143 42.0153 10.569 42.2469 10.9405 42.2469C11.0739 42.2469 11.2096 42.2171 11.3391 42.1539L12.7596 41.4619C13.25 41.2233 13.4689 40.5989 13.2484 40.0676Z" fill="black"/>
<path d="M1.99906 47.7657C2.12794 47.3658 2.3273 47.0045 2.59158 46.6919C2.95457 46.2623 2.92761 45.5953 2.53113 45.2019C2.13456 44.8084 1.51888 44.8378 1.15579 45.2674C0.712204 45.7922 0.37764 46.3987 0.161151 47.0702C-0.0161084 47.6201 0.251582 48.2216 0.75922 48.4137C0.86542 48.4539 0.973664 48.473 1.08016 48.473C1.48247 48.473 1.85889 48.2005 1.99906 47.7657Z" fill="black"/>
<path d="M3.62744 51.6649C3.2662 51.506 2.94322 51.2723 2.66735 50.9703C2.28918 50.5562 1.67291 50.5526 1.29074 50.9622C0.90858 51.3719 0.90527 52.0397 1.28344 52.4538C1.74591 52.9603 2.2883 53.3525 2.89552 53.6194C3.01535 53.6722 3.13927 53.697 3.26114 53.697C3.64574 53.697 4.00999 53.4485 4.16359 53.0386C4.36558 52.4989 4.12563 51.8839 3.62744 51.6649Z" fill="black"/>
<path d="M14.9059 51.8907H13.3484C12.8109 51.8907 12.375 52.3629 12.375 52.9454C12.375 53.5279 12.8109 54.0001 13.3484 54.0001H14.9059C15.4434 54.0001 15.8793 53.5279 15.8793 52.9454C15.8793 52.3629 15.4434 51.8907 14.9059 51.8907Z" fill="black"/>
<path d="M26.587 51.8907H25.0296C24.492 51.8907 24.0562 52.3629 24.0562 52.9454C24.0562 53.5279 24.492 54.0001 25.0296 54.0001H26.587C27.1247 54.0001 27.5605 53.5279 27.5605 52.9454C27.5605 52.3629 27.1246 51.8907 26.587 51.8907Z" fill="black"/>
<path d="M20.7462 51.8907H19.1888C18.6512 51.8907 18.2153 52.3629 18.2153 52.9454C18.2153 53.5279 18.6512 54.0001 19.1888 54.0001H20.7462C21.2837 54.0001 21.7196 53.5279 21.7196 52.9454C21.7196 52.3629 21.2837 51.8907 20.7462 51.8907Z" fill="black"/>
<path d="M43.0467 23.0978C42.7907 23.0978 42.5395 23.2107 42.3586 23.4069C42.1775 23.603 42.0732 23.8751 42.0732 24.1525C42.0732 24.4299 42.1774 24.702 42.3586 24.8982C42.5395 25.0944 42.7907 25.2072 43.0467 25.2072C43.3028 25.2072 43.5539 25.0944 43.7349 24.8982C43.9159 24.702 44.0201 24.4299 44.0201 24.1525C44.0201 23.8751 43.916 23.603 43.7349 23.4069C43.5539 23.2106 43.3028 23.0978 43.0467 23.0978Z" fill="black"/>
</g>
<defs>
<clipPath id="clip0">
<rect width="49.839" height="54" fill="white"/>
</clipPath>
</defs>
</svg>
