<svg width="100" height="97" viewBox="0 0 100 97" fill="none" xmlns="http://www.w3.org/2000/svg">
<g filter="url(#filter0_d)">
<path d="M87.2333 57.6656L57.137 36.4868C55.8035 35.5485 55.0102 34.0199 55.0102 32.3894V28.7276C55.0102 25.9605 52.7671 23.7174 50.0001 23.7174C47.233 23.7174 44.9899 25.9605 44.9899 28.7276V32.3894C44.9899 34.0199 44.1965 35.5484 42.8632 36.4868L12.767 57.6656C11.767 58.3693 11.1719 59.5157 11.1719 60.7386V68.5725C11.1719 69.3497 11.8723 69.9394 12.6383 69.8067L41.4501 64.8154C43.5662 64.4487 45.6805 65.4717 46.7065 67.3583L47.1393 68.154C47.3585 68.5572 47.7807 68.8081 48.2396 68.8081H51.7606C52.2195 68.8081 52.6416 68.5572 52.8609 68.154L53.2937 67.3583C54.3198 65.4715 56.4342 64.4487 58.5501 64.8154L87.3619 69.8067C88.1275 69.9394 88.8281 69.3498 88.8281 68.5725V60.7386C88.8283 59.5157 88.2333 58.3693 87.2333 57.6656Z" fill="#EDEBED"/>
<path d="M87.2328 57.6656L57.1365 36.4868C55.803 35.5485 55.0098 34.0199 55.0098 32.3895V65.5347C56.0385 64.8801 57.2912 64.5973 58.5498 64.8154L87.3616 69.8067C88.1272 69.9394 88.8278 69.3498 88.8278 68.5725V60.7386C88.8278 59.5158 88.2328 58.3693 87.2328 57.6656Z" fill="#DBD9DC"/>
<path d="M44.9897 28.7274V32.3893V65.5345C45.6907 65.9803 46.2904 66.5937 46.7062 67.3581L47.139 68.1539C47.3582 68.557 47.7804 68.8079 48.2393 68.8079H49.9999V23.7172C47.2329 23.7172 44.9897 25.9604 44.9897 28.7274Z" fill="#DBD9DC"/>
<path d="M47.3999 17.3599C46.9422 17.8175 46.9422 18.5596 47.3999 19.0171C47.8575 19.4747 48.5996 19.4747 49.0571 19.0171C49.3088 18.7654 49.6436 18.6266 49.9997 18.6266C50.3558 18.6266 50.6907 18.7654 50.9424 19.0171C51.1711 19.2458 51.4711 19.3604 51.771 19.3604C52.0708 19.3604 52.3708 19.246 52.5996 19.0171C53.0572 18.5594 53.0572 17.8174 52.5996 17.3599C51.1663 15.9261 48.8335 15.9261 47.3999 17.3599Z" fill="#040404"/>
<path d="M40.2006 10.1605C42.8181 7.54295 46.2983 6.10138 50 6.10138C53.7017 6.10138 57.1819 7.54295 59.7994 10.1605C60.0282 10.3892 60.3282 10.5037 60.628 10.5037C60.9279 10.5037 61.2279 10.3894 61.4566 10.1605C61.9143 9.7028 61.9143 8.96076 61.4566 8.50326C58.3964 5.44295 54.3277 3.75763 50 3.75763C45.6724 3.75763 41.6036 5.44294 38.5434 8.50311C38.0858 8.96076 38.0858 9.7028 38.5434 10.1603C39.0009 10.6181 39.743 10.6181 40.2006 10.1605Z" fill="#040404"/>
<path d="M56.1997 14.9321C56.4995 14.9321 56.7995 14.8177 57.0283 14.5888C57.4859 14.1312 57.4859 13.3891 57.0283 12.9316C53.1528 9.05615 46.8471 9.05615 42.9717 12.9316C42.514 13.3893 42.514 14.1313 42.9717 14.5888C43.4293 15.0466 44.1714 15.0465 44.6289 14.5888C47.5904 11.6274 52.4093 11.6274 55.3709 14.5888C55.5998 14.8177 55.8997 14.9321 56.1997 14.9321Z" fill="#040404"/>
<path d="M87.9077 56.7071L57.8113 35.5283C56.7912 34.8104 56.182 33.6371 56.182 32.3894V28.7274C56.182 25.3186 53.4087 22.5455 50.0001 22.5455C46.5915 22.5455 43.8182 25.3188 43.8182 28.7274V32.3894C43.8182 33.6369 43.2091 34.8104 42.1888 35.5283L12.0925 56.7071C10.7822 57.6293 10 59.1364 10 60.7386V68.5726C10 69.2897 10.3147 69.9658 10.8633 70.4275C11.3044 70.7987 11.8561 70.9972 12.4225 70.9972C12.5606 70.9972 12.6997 70.9853 12.8383 70.9614L21.2727 69.5001V70.0606C21.2727 70.7078 21.7974 71.2325 22.4446 71.2325C23.0917 71.2325 23.6164 70.7078 23.6164 70.0606V69.094L41.6501 65.97C43.2716 65.6889 44.8904 66.4717 45.6769 67.9181L46.1099 68.7139C46.5346 69.4948 47.3507 69.98 48.2396 69.98H48.8282V72.6462H42.4849C41.8377 72.6462 41.313 73.1709 41.313 73.8181C41.313 74.4653 41.8377 74.99 42.4849 74.99H48.8282V75.0706C48.8282 75.7178 49.3529 76.2425 50.0001 76.2425C50.6473 76.2425 51.172 75.7178 51.172 75.0706V74.99H57.5152C58.1624 74.99 58.6871 74.4653 58.6871 73.8181C58.6871 73.1709 58.1624 72.6462 57.5152 72.6462H51.172V69.98H51.7606C52.6495 69.98 53.4656 69.4948 53.8904 68.7139L54.3232 67.9179C55.1096 66.4718 56.7277 65.6893 58.3501 65.97L69.8401 67.9604C70.4778 68.0704 71.0843 67.6434 71.1948 67.0057C71.3054 66.3679 70.8779 65.7615 70.2403 65.6511L58.7501 63.6607C56.137 63.2082 53.531 64.4692 52.2641 66.7984L51.8313 67.5942C51.8171 67.6203 51.7899 67.6364 51.7604 67.6364H48.2395C48.2099 67.6364 48.1827 67.6201 48.1687 67.5942L47.7359 66.7984C46.4691 64.469 43.8626 63.2087 41.2499 63.6606L23.6164 66.7156V51.4638L43.5376 37.4452C45.1809 36.2888 46.1619 34.3988 46.1619 32.3896V28.7275C46.1619 26.6111 47.8838 24.8894 50.0001 24.8894C52.1163 24.8894 53.8382 26.6113 53.8382 28.7275V32.3896C53.8382 34.399 54.8193 36.289 56.4624 37.4452L76.3836 51.4638V66.7156L75.2509 66.5193C74.6134 66.409 74.0067 66.8364 73.8962 67.474C73.7858 68.1118 74.2131 68.7183 74.8509 68.8287L76.3836 69.0942V70.0608C76.3836 70.7079 76.9083 71.2326 77.5555 71.2326C78.2026 71.2326 78.7273 70.7079 78.7273 70.0608V69.5003L87.1617 70.9614C87.8684 71.0839 88.5881 70.8892 89.1367 70.4275C89.6853 69.9658 90 69.2897 90 68.5726V60.7386C90.0002 59.1364 89.218 57.6293 87.9077 56.7071ZM21.2727 67.1215L12.4381 68.652C12.428 68.6537 12.4013 68.6584 12.3725 68.6342C12.3438 68.6101 12.3438 68.5828 12.3438 68.5726V60.7386C12.3438 59.8981 12.7541 59.1076 13.4414 58.624L21.2727 53.1131V67.1215ZM87.6564 68.5726C87.6564 68.5828 87.6564 68.6101 87.6277 68.6343C87.5989 68.6584 87.572 68.6539 87.562 68.652L78.7275 67.1215V53.1131L86.5587 58.624C87.2461 59.1076 87.6564 59.8981 87.6564 60.7386V68.5726Z" fill="#040404"/>
<path d="M43.8184 41.2527V60.0406C43.8184 60.6877 44.343 61.2124 44.9902 61.2124C45.6374 61.2124 46.1621 60.6877 46.1621 60.0406V41.2527C46.1621 40.6055 45.6374 40.0808 44.9902 40.0808C44.343 40.0808 43.8184 40.6055 43.8184 41.2527Z" fill="#040404"/>
<path d="M53.8384 41.2527V60.0406C53.8384 60.6877 54.3631 61.2124 55.0103 61.2124C55.6574 61.2124 56.1821 60.6877 56.1821 60.0406V41.2527C56.1821 40.6055 55.6574 40.0808 55.0103 40.0808C54.3631 40.0808 53.8384 40.6055 53.8384 41.2527Z" fill="#040404"/>
<path d="M48.2021 28.7274C48.2021 29.7188 49.0089 30.5256 50.0003 30.5256C50.9917 30.5256 51.7984 29.7188 51.7984 28.7274C51.7984 27.7359 50.9917 26.9293 50.0003 26.9293C49.0089 26.9293 48.2021 27.736 48.2021 28.7274Z" fill="#040404"/>
</g>
<defs>
<filter id="filter0_d" x="0" y="0" width="100" height="100" filterUnits="userSpaceOnUse" color-interpolation-filters="sRGB">
<feFlood flood-opacity="0" result="BackgroundImageFix"/>
<feColorMatrix in="SourceAlpha" type="matrix" values="0 0 0 0 0 0 0 0 0 0 0 0 0 0 0 0 0 0 127 0"/>
<feOffset dy="10"/>
<feGaussianBlur stdDeviation="5"/>
<feColorMatrix type="matrix" values="0 0 0 0 0 0 0 0 0 0 0 0 0 0 0 0 0 0 0.25 0"/>
<feBlend mode="normal" in2="BackgroundImageFix" result="effect1_dropShadow"/>
<feBlend mode="normal" in="SourceGraphic" in2="effect1_dropShadow" result="shape"/>
</filter>
</defs>
</svg>
