<svg width="80" height="80" viewBox="0 0 80 80" fill="none" xmlns="http://www.w3.org/2000/svg">
<g clip-path="url(#clip0)">
<path d="M40.513 29.6897C36.0062 29.6897 32.3525 33.3432 32.3525 37.8502C32.3525 42.357 36.006 46.0107 40.513 46.0107C45.0198 46.0107 48.6735 42.3572 48.6735 37.8502C48.6735 33.3432 45.02 29.6897 40.513 29.6897ZM40.513 42.1246C38.1522 42.1246 36.2385 40.2108 36.2385 37.85C36.2385 35.4892 38.1522 33.5755 40.513 33.5755C42.8738 33.5755 44.7876 35.4892 44.7876 37.85C44.7876 40.2108 42.8738 42.1246 40.513 42.1246Z" fill="black"/>
<path d="M73.0579 11.0373L20.0152 5.01425C17.9566 4.72157 15.8708 5.32255 14.2836 6.66583C12.6965 7.89643 11.6792 9.72057 11.4663 11.7175L10.4949 19.6836H7.48309C3.20854 19.6836 0.00262537 23.4723 0.00262537 27.7468V67.4802C-0.105038 71.5563 3.11203 74.9482 7.18837 75.0559C7.28655 75.0585 7.38491 75.059 7.48309 75.0577H60.8172C65.0917 75.0577 68.9777 71.7547 68.9777 67.4802V65.9259C70.3029 65.6698 71.5601 65.1404 72.6693 64.3715C74.2433 63.0463 75.2511 61.1695 75.4865 59.1256L79.9554 19.6836C80.411 15.3992 77.3363 11.5451 73.0579 11.0373ZM65.0917 67.4802C65.0917 69.6175 62.9545 71.1718 60.8172 71.1718H7.48309C5.5524 71.2285 3.94136 69.7093 3.88464 67.7786C3.88167 67.6792 3.88297 67.5797 3.88855 67.4802V60.2913L18.9465 49.2165C20.7554 47.8276 23.3033 47.9511 24.9697 49.5078L35.5589 58.834C37.1669 60.1842 39.1912 60.9389 41.2907 60.9713C42.9322 60.9914 44.5468 60.5542 45.9539 59.7083L65.0919 48.6335V67.4802H65.0917ZM65.0917 44.0676L43.9135 56.4054C42.0949 57.4827 39.7931 57.2877 38.1817 55.9197L27.4955 46.4962C24.4327 43.8645 19.9562 43.7031 16.712 46.1076L3.88855 55.4338V27.7468C3.88855 25.6096 5.34582 23.5695 7.48309 23.5695H60.8172C63.1006 23.6642 64.9446 25.4664 65.0917 27.7468V44.0676ZM76.0732 19.1591C76.0719 19.1719 76.0708 19.1849 76.0693 19.1977L71.5034 58.6397C71.5112 59.6624 71.0448 60.631 70.2404 61.2627C69.8518 61.6513 68.9775 61.8456 68.9775 62.0399V27.7468C68.8241 23.3211 65.2442 19.7838 60.817 19.6836H14.3806L15.2549 12.1061C15.4446 11.1248 15.9576 10.2356 16.7122 9.58018C17.5642 8.9911 18.5944 8.71645 19.6267 8.80292L72.5724 14.9232C74.7085 15.126 76.2761 17.0225 76.0732 19.1591Z" fill="black"/>
</g>
<defs>
<clipPath id="clip0">
<rect width="80" height="80" fill="white"/>
</clipPath>
</defs>
</svg>
