<svg width="110" height="32" viewBox="0 0 110 32" fill="none" xmlns="http://www.w3.org/2000/svg">
<path d="M70.0322 6.89648H84.6572V10.7215H74.9072V13.5465H79.4322C81.5489 13.5465 83.1739 13.9965 84.3072 14.8965C85.4406 15.7965 86.0072 17.0882 86.0072 18.7715C86.0072 20.5382 85.3739 21.9215 84.1072 22.9215C82.8406 23.9048 81.0656 24.3965 78.7822 24.3965H70.0322V6.89648ZM78.4572 20.8465C79.2906 20.8465 79.9239 20.6798 80.3572 20.3465C80.7906 20.0132 81.0072 19.5382 81.0072 18.9215C81.0072 17.6882 80.1572 17.0715 78.4572 17.0715H74.9072V20.8465H78.4572ZM97.0875 24.7465C95.2542 24.7465 93.6042 24.3632 92.1375 23.5965C90.6875 22.8132 89.5458 21.7298 88.7125 20.3465C87.8792 18.9632 87.4625 17.3965 87.4625 15.6465C87.4625 13.8965 87.8792 12.3298 88.7125 10.9465C89.5458 9.56315 90.6875 8.48815 92.1375 7.72148C93.6042 6.93815 95.2542 6.54648 97.0875 6.54648C98.6875 6.54648 100.129 6.82982 101.413 7.39648C102.696 7.96315 103.763 8.77982 104.613 9.84648L101.463 12.6965C100.329 11.3298 98.9542 10.6465 97.3375 10.6465C96.3875 10.6465 95.5375 10.8548 94.7875 11.2715C94.0542 11.6882 93.4792 12.2798 93.0625 13.0465C92.6625 13.7965 92.4625 14.6632 92.4625 15.6465C92.4625 16.6298 92.6625 17.5048 93.0625 18.2715C93.4792 19.0215 94.0542 19.6048 94.7875 20.0215C95.5375 20.4382 96.3875 20.6465 97.3375 20.6465C98.9542 20.6465 100.329 19.9632 101.463 18.5965L104.613 21.4465C103.763 22.5132 102.696 23.3298 101.413 23.8965C100.129 24.4632 98.6875 24.7465 97.0875 24.7465Z" fill="black"/>
<path d="M54.3608 6.94238V12.7276" stroke="black" stroke-width="3"/>
<path d="M64.7349 16.7771L58.6268 16.7771" stroke="black" stroke-width="3"/>
<path d="M50.0869 16.7771L43.9825 16.7771" stroke="black" stroke-width="3"/>
<path d="M54.3608 20.8267V26.6119" stroke="black" stroke-width="3"/>
<rect x="53.1401" y="15.6199" width="2.44178" height="2.31409" fill="#FF0000"/>
<line x1="9.15674" y1="1" x2="6.48499e-05" y2="1" stroke="#00A911" stroke-width="2"/>
<line x1="1" y1="0.000244141" x2="1" y2="5.20695" stroke="#00A911" stroke-width="2"/>
<line y1="-1" x2="9.15667" y2="-1" transform="matrix(-1 0 0 1 9.15674 31.2068)" stroke="#00A911" stroke-width="2"/>
<line y1="-1" x2="5.2067" y2="-1" transform="matrix(0 -1 -1 0 0 31.2068)" stroke="#00A911" stroke-width="2"/>
<line y1="-1" x2="9.07668" y2="-1" transform="matrix(0.9999 -0.0141096 -0.0156184 -0.999878 100 0.128174)" stroke="#00A911" stroke-width="2"/>
<line y1="-1" x2="5.20746" y2="-1" transform="matrix(0.0158352 0.999875 0.999903 -0.0139164 109.076 0)" stroke="#00A911" stroke-width="2"/>
<line y1="-1" x2="9.15718" y2="-1" transform="matrix(0.99996 -0.00893043 0.0109435 0.99994 100 31.4751)" stroke="#00A911" stroke-width="2"/>
<line y1="-1" x2="5.12337" y2="-1" transform="matrix(-0.010644 -0.999943 0.999958 -0.00918164 109.157 31.3904)" stroke="#00A911" stroke-width="2"/>
<path d="M6.54541 7.87182H11.4204V18.1468L18.6454 7.87182H23.2954V25.3718H18.4204V15.1218L11.2204 25.3718H6.54541V7.87182ZM27.0532 7.87182H41.6782V11.6968H31.9282V14.5218H36.4532C38.5699 14.5218 40.1949 14.9718 41.3282 15.8718C42.4616 16.7718 43.0282 18.0635 43.0282 19.7468C43.0282 21.5135 42.3949 22.8968 41.1282 23.8968C39.8616 24.8802 38.0866 25.3718 35.8032 25.3718H27.0532V7.87182ZM35.4782 21.8218C36.3116 21.8218 36.9449 21.6552 37.3782 21.3218C37.8116 20.9885 38.0282 20.5135 38.0282 19.8968C38.0282 18.6635 37.1782 18.0468 35.4782 18.0468H31.9282V21.8218H35.4782Z" fill="black"/>
</svg>
