<svg width="216" height="59" viewBox="0 0 216 59" fill="none" xmlns="http://www.w3.org/2000/svg">
<path d="M127.6 13.4H155.68V20.744H136.96V26.168H145.648C149.712 26.168 152.832 27.032 155.008 28.76C157.184 30.488 158.272 32.968 158.272 36.2C158.272 39.592 157.056 42.248 154.624 44.168C152.192 46.056 148.784 47 144.4 47H127.6V13.4ZM143.776 40.184C145.376 40.184 146.592 39.864 147.424 39.224C148.256 38.584 148.672 37.672 148.672 36.488C148.672 34.12 147.04 32.936 143.776 32.936H136.96V40.184H143.776ZM179.546 47.672C176.026 47.672 172.858 46.936 170.042 45.464C167.258 43.96 165.066 41.88 163.466 39.224C161.866 36.568 161.066 33.56 161.066 30.2C161.066 26.84 161.866 23.832 163.466 21.176C165.066 18.52 167.258 16.456 170.042 14.984C172.858 13.48 176.026 12.728 179.546 12.728C182.618 12.728 185.386 13.272 187.85 14.36C190.314 15.448 192.362 17.016 193.994 19.064L187.946 24.536C185.77 21.912 183.13 20.6 180.026 20.6C178.202 20.6 176.57 21 175.13 21.8C173.722 22.6 172.618 23.736 171.818 25.208C171.05 26.648 170.666 28.312 170.666 30.2C170.666 32.088 171.05 33.768 171.818 35.24C172.618 36.68 173.722 37.8 175.13 38.6C176.57 39.4 178.202 39.8 180.026 39.8C183.13 39.8 185.77 38.488 187.946 35.864L193.994 41.336C192.362 43.384 190.314 44.952 187.85 46.04C185.386 47.128 182.618 47.672 179.546 47.672Z" fill="black"/>
<path d="M107 13V23" stroke="black" stroke-width="3"/>
<path d="M124 30L114 30" stroke="black" stroke-width="3"/>
<path d="M100 30L90 30" stroke="black" stroke-width="3"/>
<path d="M107 37V47" stroke="black" stroke-width="3"/>
<rect x="105" y="28" width="4" height="4" fill="#FF0000"/>
<line x1="15" y1="2" y2="2" stroke="#00A911" stroke-width="2"/>
<line x1="1" y1="1" x2="1" y2="10" stroke="#00A911" stroke-width="2"/>
<line y1="-1" x2="15" y2="-1" transform="matrix(-1 0 0 1 15 58)" stroke="#00A911" stroke-width="2"/>
<line y1="-1" x2="9" y2="-1" transform="matrix(0 -1 -1 0 0 58)" stroke="#00A911" stroke-width="2"/>
<line y1="-1" x2="14.8687" y2="-1" transform="matrix(0.999891 -0.0147557 -0.0149345 -0.999888 201 1.22183)" stroke="#00A911" stroke-width="2"/>
<line y1="-1" x2="9.001" y2="-1" transform="matrix(0.0147711 0.999891 0.999889 -0.014919 215.867 1)" stroke="#00A911" stroke-width="2"/>
<line y1="-1" x2="15.0007" y2="-1" transform="matrix(0.999953 -0.00966724 0.0101094 0.999949 201 58)" stroke="#00A911" stroke-width="2"/>
<line y1="-1" x2="8.85515" y2="-1" transform="matrix(-0.0100875 -0.999949 0.999953 -0.00968823 216 57.8547)" stroke="#00A911" stroke-width="2"/>
<path d="M18.6 13.4H27.96V33.128L41.832 13.4H50.76V47H41.4V27.32L27.576 47H18.6V13.4ZM57.975 13.4H86.055V20.744H67.335V26.168H76.023C80.087 26.168 83.207 27.032 85.383 28.76C87.559 30.488 88.647 32.968 88.647 36.2C88.647 39.592 87.431 42.248 84.999 44.168C82.567 46.056 79.159 47 74.775 47H57.975V13.4ZM74.151 40.184C75.751 40.184 76.967 39.864 77.799 39.224C78.631 38.584 79.047 37.672 79.047 36.488C79.047 34.12 77.415 32.936 74.151 32.936H67.335V40.184H74.151Z" fill="black"/>
</svg>
