<svg width="55" height="54" viewBox="0 0 55 54" fill="none" xmlns="http://www.w3.org/2000/svg">
<path d="M46.9086 38.0788C46.9023 38.0685 46.8961 38.0582 46.8898 38.0479C46.8441 37.9737 46.7972 37.9002 46.7493 37.8272C46.7229 37.7869 46.6963 37.7467 46.6693 37.7069C46.6365 37.6585 46.6033 37.6103 46.5694 37.5624C46.5257 37.5003 46.4811 37.4389 46.4359 37.3779C46.4224 37.3598 46.4099 37.3412 46.3964 37.3232C46.3867 37.3104 46.3765 37.2983 46.3668 37.2855C46.3124 37.2139 46.2568 37.1434 46.2003 37.0735C46.1805 37.0491 46.161 37.0245 46.1411 37.0003C46.0848 36.9322 46.0273 36.8651 45.9692 36.7987C45.9449 36.7709 45.921 36.743 45.8965 36.7156C45.8481 36.6614 45.7983 36.6083 45.7485 36.5554C45.7114 36.5157 45.6746 36.4758 45.6369 36.4369C45.6086 36.4078 45.5794 36.3795 45.5507 36.3509C44.4496 35.2453 43.0927 34.438 41.565 33.9918C41.5389 33.9841 41.5123 33.9778 41.4854 33.9729C41.4851 33.9729 34.2768 32.6446 34.2765 32.6445C34.2637 32.6422 34.251 32.6415 34.2382 32.6395C33.9009 32.5851 33.5563 32.6299 33.247 32.7643C32.9961 32.4586 32.8308 32.0388 32.8308 31.6509V30.3563C33.2864 30.0678 33.7288 29.7435 34.1558 29.3787C35.9422 27.853 37.0672 25.6507 37.31 23.2483C38.6216 23.1881 39.6699 22.1109 39.6699 20.7953V18.9508C39.6699 18.205 39.3329 17.5148 38.7657 17.0541V12.814C41.3722 11.5399 41.9386 10.0543 41.9386 9.00619C41.9386 7.20773 40.2499 4.95661 37.5316 3.13116C35.79 1.96182 32.1439 0 27.2912 0C22.4385 0 18.7924 1.96182 17.0509 3.13116C14.3326 4.9565 12.6439 7.20763 12.6439 9.00619C12.6439 10.0543 13.2103 11.5399 15.8168 12.814V17.0541C15.2496 17.5148 14.9126 18.205 14.9126 18.9508V20.7953C14.9126 22.1109 15.9609 23.1881 17.2725 23.2483C17.5151 25.6507 18.6403 27.8531 20.4267 29.3787C20.8537 29.7435 21.2961 30.0678 21.7517 30.3563V31.6509C21.7517 32.0388 21.5864 32.4585 21.3354 32.7642C21.0144 32.6247 20.6553 32.5799 20.306 32.6445L13.0972 33.9729C13.0703 33.9778 13.0437 33.9841 13.0175 33.9918C11.4906 34.4378 10.1344 35.2445 9.03351 36.3492C9.00405 36.3786 8.97428 36.4076 8.94526 36.4373C8.90804 36.4756 8.87178 36.5151 8.83521 36.5541C8.78492 36.6077 8.73473 36.6613 8.68561 36.716C8.66147 36.743 8.63787 36.7706 8.61394 36.7979C8.55546 36.8647 8.49773 36.9321 8.44127 37.0005C8.42139 37.0246 8.40204 37.0491 8.38237 37.0733C8.3258 37.1434 8.27008 37.2139 8.21565 37.2855C8.20597 37.2983 8.19576 37.3103 8.18609 37.3232C8.17248 37.3412 8.15993 37.3598 8.14653 37.3779C8.10134 37.4389 8.05679 37.5003 8.01309 37.5624C7.97918 37.6104 7.9459 37.6587 7.91304 37.7071C7.88614 37.7468 7.85967 37.7868 7.8334 37.827C7.78545 37.9001 7.73845 37.9737 7.69263 38.0479C7.68635 38.0581 7.68008 38.0684 7.67391 38.0786C6.79258 39.5192 6.3291 41.1551 6.3291 42.8612V43.8256C6.3291 44.2627 6.68625 44.6169 7.12676 44.6169C7.56727 44.6169 7.92442 44.2626 7.92442 43.8256V42.8612C7.92442 42.09 8.03968 41.3365 8.26168 40.6165C8.73111 40.9868 9.30081 41.1841 9.89294 41.1841C9.98757 41.1841 10.0829 41.179 10.1783 41.1688C10.8768 41.0945 11.5043 40.7548 11.9452 40.2124L12.8133 39.1445C13.2542 38.6021 13.4558 37.9217 13.381 37.2289C13.3214 36.6783 13.0924 36.1725 12.7266 35.7684C12.9559 35.6759 13.19 35.5924 13.43 35.521L18.0298 34.6735L21.6797 39.7399C22.0451 40.2468 22.6171 40.5263 23.2104 40.5263C23.4593 40.5263 23.7119 40.4771 23.9546 40.3749L24.1975 40.2725L25.2597 41.4974L23.7277 52.4174H13.7039V46.0015C13.7039 45.5644 13.3467 45.2102 12.9062 45.2102C12.4657 45.2102 12.1086 45.5644 12.1086 46.0015V52.4174H8.91772C8.37003 52.4174 7.92463 51.9755 7.92463 51.4324V47.5075C7.92463 47.0704 7.56748 46.7162 7.12697 46.7162C6.68646 46.7162 6.32931 47.0705 6.32931 47.5075V51.4324C6.32931 52.8481 7.4905 54 8.91782 54H45.665C47.0923 54 48.2535 52.8481 48.2535 51.4324V42.8614C48.2533 41.1552 47.7899 39.5194 46.9086 38.0788ZM11.5713 38.1514L10.7033 39.2194C10.5298 39.4328 10.2831 39.5663 10.0083 39.5956C9.73398 39.6247 9.46381 39.5462 9.24871 39.3741L8.9158 39.1079C8.98725 38.9816 9.06211 38.8575 9.14015 38.7359C9.141 38.7346 9.14206 38.7332 9.14292 38.7317C9.2099 38.6275 9.28039 38.526 9.35216 38.4255C9.37396 38.3952 9.39565 38.3648 9.41787 38.3346C9.48188 38.2477 9.5477 38.1624 9.61522 38.0784C9.63265 38.0567 9.64977 38.0347 9.66742 38.0132C9.74366 37.9204 9.82234 37.83 9.90283 37.741C9.92633 37.715 9.95025 37.6895 9.97407 37.6638C10.0538 37.5781 10.1348 37.4936 10.2185 37.4117C10.2256 37.4046 10.2327 37.3973 10.2399 37.3903C10.5483 37.0902 10.8827 36.8153 11.2407 36.5688L11.4155 36.7086C11.6306 36.8806 11.7653 37.1254 11.7948 37.398C11.824 37.6704 11.7448 37.9378 11.5713 38.1514ZM43.167 36.7084L43.3418 36.5685C43.7 36.8151 44.0342 37.09 44.3427 37.39C44.3499 37.3971 44.3568 37.4044 44.3641 37.4115C44.4477 37.4935 44.5288 37.578 44.6085 37.6636C44.6323 37.6893 44.6563 37.7148 44.6797 37.7408C44.7602 37.8297 44.8389 37.9203 44.9152 38.0129C44.9328 38.0345 44.9499 38.0565 44.9674 38.0782C45.0349 38.1622 45.1007 38.2476 45.1647 38.3344C45.1869 38.3645 45.2087 38.395 45.2304 38.4253C45.3022 38.5258 45.3727 38.6274 45.4397 38.7315C45.4406 38.7329 45.4416 38.7342 45.4424 38.7357C45.5206 38.8573 45.5954 38.9814 45.6668 39.1077L45.3339 39.3739C45.1187 39.5459 44.8487 39.6244 44.5743 39.5954C44.2995 39.5662 44.0527 39.4326 43.8792 39.2191L43.0112 38.1512C42.6531 37.7108 42.7231 37.0636 43.167 36.7084ZM33.6431 34.3878C33.6442 34.387 33.6452 34.3862 33.6463 34.3853L33.855 34.2305C33.8921 34.203 33.9396 34.1923 33.9849 34.2005L34.8216 34.3547L31.6048 38.8198C31.5243 38.9316 31.3791 38.9721 31.2516 38.9184L28.8801 37.9191L33.6431 34.3878ZM27.2912 37.1213L22.6429 33.675C23.0821 33.1032 23.3471 32.3753 23.3471 31.6509V31.1876C24.5775 31.6989 25.8923 31.9663 27.2824 31.9817C27.2853 31.9817 27.2883 31.9817 27.2913 31.9817C27.2943 31.9817 27.2972 31.9817 27.3002 31.9817C28.6903 31.9662 30.005 31.6988 31.2355 31.1876V31.6509C31.2355 32.3754 31.5005 33.1032 31.9395 33.675L27.2912 37.1213ZM28.844 39.6232L28.1173 40.4612H26.4653L25.7387 39.6232L27.2913 38.969L28.844 39.6232ZM15.8168 11.0103C14.7916 10.3834 14.2393 9.69089 14.2393 9.00608C14.2393 7.57972 16.1603 5.64015 17.9452 4.44161C19.5354 3.37395 22.8641 1.58256 27.2912 1.58256C31.7183 1.58256 35.0469 3.37395 36.6371 4.44171C38.422 5.64026 40.343 7.57983 40.343 9.00619C40.343 9.69089 39.7908 10.3835 38.7656 11.0104V9.5715C38.7656 8.45406 38.0031 7.48027 36.9112 7.20341C34.8461 6.67986 30.7852 5.80152 26.7918 5.79994C26.7882 5.79994 26.7852 5.79994 26.7816 5.79994C23.3235 5.79994 19.8879 6.5552 17.6143 7.18907C16.556 7.48417 15.8168 8.45174 15.8168 9.54197V11.0103V11.0103ZM18.5833 13.7884C18.5721 13.7813 18.5607 13.7743 18.5497 13.7673C18.498 13.7345 18.4483 13.7014 18.3999 13.6683C18.3802 13.6548 18.3607 13.6413 18.3416 13.6277C18.3021 13.5999 18.2637 13.5718 18.2265 13.5438C18.2008 13.5244 18.1761 13.505 18.1516 13.4856C18.1223 13.4623 18.0934 13.4391 18.0658 13.4158C18.0363 13.3909 18.0084 13.3662 17.981 13.3413C17.9603 13.3226 17.9395 13.304 17.9199 13.2854C17.8887 13.2554 17.8594 13.2256 17.831 13.1957C17.8174 13.1815 17.8032 13.1671 17.7902 13.1529C17.7888 13.1513 17.7877 13.1497 17.7863 13.1483H31.1785C31.619 13.1483 31.9761 12.794 31.9761 12.357C31.9761 11.92 31.619 11.5658 31.1785 11.5658H17.4122V9.54207C17.4122 9.15775 17.6728 8.81666 18.046 8.71267C20.2233 8.10559 23.5049 7.3825 26.7816 7.3825C26.7845 7.3825 26.788 7.3825 26.791 7.3825C30.6102 7.38408 34.5235 8.23152 36.5161 8.73671C36.9011 8.83427 37.17 9.17757 37.17 9.5715V11.5657H35.0308C34.5903 11.5657 34.2331 11.92 34.2331 12.3569C34.2331 12.7941 34.5903 13.1483 35.0309 13.1483H36.7965C36.7951 13.1498 36.794 13.1514 36.7926 13.1529C36.7796 13.1671 36.7654 13.1815 36.7518 13.1957C36.7233 13.2256 36.6941 13.2554 36.6629 13.2854C36.6433 13.304 36.6225 13.3226 36.6018 13.3413C36.5744 13.3662 36.5464 13.3909 36.517 13.4158C36.4893 13.4391 36.4605 13.4623 36.4312 13.4856C36.4067 13.505 36.382 13.5244 36.3563 13.5438C36.3191 13.5718 36.2807 13.5999 36.2412 13.6277C36.222 13.6412 36.2026 13.6548 36.1829 13.6683C36.1344 13.7014 36.0848 13.7345 36.0331 13.7673C36.022 13.7743 36.0108 13.7813 35.9995 13.7884C35.668 13.9953 35.273 14.1949 34.8215 14.3801C34.812 14.384 34.8035 14.3895 34.7943 14.3937C33.0852 15.0926 30.5169 15.6207 27.2914 15.6207C24.0659 15.6207 21.4976 15.0926 19.7885 14.3937C19.7792 14.3895 19.7707 14.384 19.7613 14.3801C19.3098 14.1949 18.9148 13.9953 18.5833 13.7884ZM18.6586 15.6271V17.1686C18.22 16.9431 17.7762 16.8218 17.4123 16.757V14.9182C17.7545 15.1594 18.166 15.3976 18.6586 15.6271ZM35.9239 15.627C36.4165 15.3976 36.8279 15.1594 37.1702 14.9182V16.7568C36.8063 16.8216 36.3625 16.943 35.9239 17.1685V15.627ZM21.4676 28.1795C19.8339 26.7842 18.869 24.6932 18.8203 22.4426C18.811 22.0124 18.4567 21.6683 18.0228 21.6683H17.3882C16.9029 21.6683 16.508 21.2767 16.508 20.7953V18.9508C16.508 18.6854 16.6287 18.4394 16.8317 18.2755C17.1129 18.3002 17.6379 18.3838 18.0832 18.6644C18.0877 18.6672 18.0921 18.67 18.0965 18.6728C18.1594 18.7131 18.2204 18.7575 18.279 18.8061C18.2858 18.8117 18.2926 18.8174 18.2993 18.8232C18.3278 18.8476 18.3558 18.8727 18.3829 18.8993C18.4066 18.9225 18.4313 18.9441 18.4567 18.9648C18.4641 18.9709 18.4716 18.9766 18.4792 18.9825C18.4983 18.9973 18.5178 19.0115 18.5377 19.0249C18.5455 19.0301 18.5532 19.0355 18.5612 19.0406C18.5882 19.0579 18.6155 19.0742 18.6437 19.0889C18.6438 19.089 18.644 19.0891 18.6441 19.0892C18.6727 19.1041 18.7019 19.1174 18.7316 19.1296C18.7398 19.133 18.7481 19.136 18.7564 19.1392C18.7789 19.148 18.8016 19.1559 18.8245 19.163C18.8332 19.1658 18.8417 19.1685 18.8504 19.1709C18.8805 19.1796 18.9108 19.1872 18.9414 19.1932C18.9419 19.1933 18.9424 19.1934 18.9429 19.1935C18.9744 19.1996 19.0061 19.204 19.038 19.2073C19.0467 19.2083 19.0553 19.2088 19.0638 19.2094C19.0879 19.2114 19.1122 19.2126 19.1365 19.2129C19.142 19.213 19.1475 19.2137 19.1529 19.2137C19.1564 19.2137 19.16 19.2131 19.1635 19.2131C19.1949 19.2128 19.2263 19.2116 19.2578 19.2086C19.2587 19.2085 19.2595 19.2085 19.2603 19.2085C19.2925 19.2053 19.3247 19.2004 19.3568 19.1943C19.3658 19.1926 19.3749 19.1905 19.3839 19.1886C19.4077 19.1834 19.4315 19.1775 19.4552 19.1708C19.4645 19.1682 19.4739 19.1657 19.4832 19.1627C19.5147 19.1528 19.546 19.1421 19.5769 19.1293C19.9882 18.959 20.2539 18.5637 20.2539 18.122V16.2296C22.3079 16.8713 24.8335 17.2031 27.2912 17.2031C29.7489 17.2031 32.2745 16.8713 34.3285 16.2296V18.122C34.3285 18.5637 34.5942 18.9591 35.0055 19.1293C35.0365 19.1422 35.068 19.153 35.0996 19.1629C35.1085 19.1657 35.1174 19.1681 35.1263 19.1707C35.1506 19.1776 35.1749 19.1837 35.1994 19.1889C35.2079 19.1907 35.2164 19.1927 35.225 19.1943C35.2896 19.2065 35.3546 19.2127 35.4195 19.2132C35.4228 19.2132 35.4262 19.2138 35.4295 19.2138C35.4346 19.2138 35.4397 19.2131 35.4449 19.213C35.4699 19.2127 35.4948 19.2114 35.5197 19.2094C35.5277 19.2088 35.5358 19.2083 35.5439 19.2074C35.6077 19.2008 35.6707 19.1886 35.7324 19.1708C35.7408 19.1684 35.7491 19.1658 35.7575 19.1631C35.7807 19.156 35.8035 19.1479 35.8263 19.1391C35.8345 19.1359 35.8428 19.1329 35.8509 19.1295C35.8805 19.1173 35.9099 19.104 35.9385 19.0891C35.9387 19.089 35.9389 19.0889 35.9391 19.0888C35.9672 19.0741 35.9945 19.0578 36.0214 19.0406C36.0294 19.0355 36.0371 19.03 36.0451 19.0248C36.0649 19.0114 36.0843 18.9972 36.1034 18.9825C36.111 18.9766 36.1187 18.9708 36.1261 18.9647C36.1514 18.9439 36.1762 18.9224 36.1998 18.8992C36.2266 18.8728 36.2545 18.848 36.2826 18.8239C36.29 18.8175 36.2974 18.8113 36.3049 18.8051C36.331 18.7834 36.3575 18.7624 36.3846 18.7424C36.3872 18.7405 36.3895 18.7386 36.3921 18.7367C36.4214 18.7153 36.4513 18.6953 36.4815 18.6758C36.4896 18.6705 36.4977 18.6654 36.5059 18.6603C36.5328 18.6435 36.5601 18.6273 36.5874 18.6119C36.5913 18.6096 36.5952 18.6072 36.5993 18.605C36.6304 18.5878 36.6618 18.5716 36.6934 18.5561C36.7013 18.5522 36.7091 18.5485 36.717 18.5447C36.7453 18.5312 36.7737 18.5181 36.802 18.5059C36.806 18.5042 36.8098 18.5024 36.8137 18.5007C36.8465 18.4868 36.8792 18.4738 36.9119 18.4615C36.9177 18.4592 36.9235 18.4571 36.9293 18.455C36.9604 18.4435 36.9913 18.4327 37.0221 18.4225C37.0238 18.422 37.0255 18.4214 37.0272 18.4209C37.0618 18.4096 37.0961 18.3991 37.1301 18.3894C37.1313 18.3891 37.1326 18.3887 37.1339 18.3884C37.3768 18.3192 37.5995 18.2887 37.7509 18.2753C37.954 18.4393 38.0747 18.6852 38.0747 18.9507V20.7952C38.0747 21.2766 37.6798 21.6682 37.1945 21.6682H36.5598C36.1259 21.6682 35.7716 22.0123 35.7624 22.4425C35.7137 24.6931 34.7488 26.7841 33.1151 28.1794C31.421 29.6263 29.4618 30.3731 27.2915 30.399C25.121 30.3732 23.1619 29.6265 21.4676 28.1795ZM23.3307 38.9184C23.2031 38.972 23.0579 38.9314 22.9775 38.8199L19.7607 34.3548L20.5974 34.2006C20.6429 34.1923 20.6902 34.2031 20.7274 34.2306L20.9361 34.3853C20.9372 34.3862 20.9383 34.387 20.9395 34.3879L25.7021 37.9191L23.3307 38.9184ZM25.3383 52.4174L26.7936 42.0437H27.7888L29.2441 52.4174H25.3383ZM45.6649 52.4174H42.4742V46.0015C42.4742 45.5644 42.1171 45.2102 41.6766 45.2102C41.2361 45.2102 40.8789 45.5644 40.8789 46.0015V52.4174H30.855L29.323 41.4974L30.3852 40.2725L30.6281 40.3749C30.8708 40.4771 31.1233 40.5263 31.3722 40.5263C31.9654 40.5263 32.5377 40.2469 32.903 39.7398L36.5528 34.6735L41.1526 35.521C41.3926 35.5924 41.6268 35.6759 41.856 35.7684C41.0125 36.7032 40.9498 38.1367 41.769 39.1444L42.6371 40.2124C43.0781 40.7548 43.7055 41.0944 44.4039 41.1687C44.4994 41.1789 44.5947 41.184 44.6894 41.184C45.2813 41.184 45.8511 40.9866 46.3206 40.6164C46.5426 41.3364 46.6578 42.0899 46.6578 42.8611V51.4324H46.6579C46.6581 51.9755 46.2124 52.4174 45.6649 52.4174Z" fill="white"/>
<path d="M38.1798 45.2102H33.9789C33.2604 45.2102 32.6758 45.7901 32.6758 46.5028V48.7228C32.6758 49.4356 33.2604 50.0155 33.9789 50.0155H38.1798C38.8983 50.0155 39.4828 49.4356 39.4828 48.7228V46.5028C39.4828 45.79 38.8982 45.2102 38.1798 45.2102ZM34.271 48.4328V46.7927H37.8873V48.4328H34.271Z" fill="white"/>
<path d="M20.6035 45.2101H16.4026C15.6841 45.2101 15.0996 45.79 15.0996 46.5028V48.7228C15.0996 49.4355 15.6842 50.0154 16.4026 50.0154H20.6035C21.322 50.0154 21.9066 49.4355 21.9066 48.7228V46.5028C21.9067 45.79 21.322 45.2101 20.6035 45.2101ZM20.3113 48.4328H16.695V46.7927H20.3113V48.4328Z" fill="white"/>
</svg>
