<svg width="50" height="52" viewBox="0 0 50 52" fill="none" xmlns="http://www.w3.org/2000/svg">
<g clip-path="url(#clip0)">
<path d="M49.4273 0.294898C49.1843 0.0405511 48.8304 -0.0590722 48.4982 0.034205L6.37014 11.8562C6.03822 11.9494 5.779 12.2209 5.69003 12.5685C5.60107 12.9161 5.696 13.287 5.93896 13.5416L15.2309 23.2729V35.9034C15.2309 36.2415 15.3929 36.5571 15.6621 36.7436C15.8218 36.8543 16.0067 36.9108 16.1928 36.9108C16.3203 36.9108 16.4483 36.8843 16.5692 36.8304L24.7127 33.2032L36.7788 45.84C36.9616 46.0314 37.2072 46.135 37.459 46.135C37.542 46.135 37.6255 46.1239 37.7079 46.1007C38.0398 46.0075 38.299 45.736 38.388 45.3884L42.9116 27.7077C43.0491 27.1703 42.7446 26.618 42.2314 26.4741C41.718 26.3301 41.191 26.649 41.0535 27.1863L36.961 43.1818L22.5716 28.1116L46.9447 4.15976L43.2943 18.4279C43.1567 18.9653 43.4612 19.5176 43.9744 19.6616C44.4879 19.806 45.0148 19.4866 45.1523 18.9493L49.6761 1.26796C49.7651 0.920339 49.6702 0.549446 49.4273 0.294898V0.294898ZM20.5311 27.3541C20.4769 27.4074 20.4288 27.4671 20.3877 27.532L17.1546 32.6382V23.4065L40.4738 7.75607L20.5311 27.3541ZM43.013 3.65912L16.3255 21.5701L8.47713 13.3507L43.013 3.65912ZM18.8328 33.6328L21.3408 29.6719L23.246 31.6672L18.8328 33.6328Z" fill="#FFFEFE"/>
<path d="M9.52663 49.5598H7.98771C7.45659 49.5598 7.02588 50.0108 7.02588 50.5671C7.02588 51.1235 7.45659 51.5744 7.98771 51.5744H9.52663C10.0578 51.5744 10.4885 51.1235 10.4885 50.5671C10.4885 50.0108 10.0578 49.5598 9.52663 49.5598Z" fill="#FFFEFE"/>
<path d="M8.3968 40.746C8.17904 40.2386 7.60983 40.012 7.12507 40.2402L5.72148 40.901C5.237 41.1291 5.02088 41.7254 5.23854 42.2328C5.39878 42.6062 5.74937 42.8273 6.1164 42.8273C6.24817 42.8273 6.38225 42.7988 6.51027 42.7385L7.91387 42.0777C8.39834 41.8496 8.61446 41.2534 8.3968 40.746V40.746Z" fill="#FFFEFE"/>
<path d="M13.66 38.2677C13.442 37.7604 12.873 37.5338 12.3883 37.762L10.9847 38.4228C10.5002 38.651 10.2841 39.2472 10.5017 39.7546C10.6621 40.1279 11.0126 40.3491 11.3796 40.3491C11.5114 40.3491 11.6454 40.3206 11.7735 40.2603L13.1771 39.5994C13.6616 39.3714 13.8778 38.7751 13.66 38.2677V38.2677Z" fill="#FFFEFE"/>
<path d="M2.54391 45.62C2.67126 45.238 2.86824 44.893 3.12938 44.5944C3.48804 44.1841 3.4614 43.547 3.06965 43.1713C2.6778 42.7955 2.06944 42.8236 1.71068 43.2338C1.27237 43.7351 0.941793 44.3144 0.727883 44.9557C0.552734 45.481 0.817236 46.0554 1.31883 46.2389C1.42377 46.2772 1.53072 46.2955 1.63595 46.2955C2.03347 46.2955 2.40541 46.0353 2.54391 45.62Z" fill="#FFFEFE"/>
<path d="M4.15379 49.344C3.79686 49.1923 3.47772 48.9691 3.20514 48.6806C2.83147 48.2851 2.22254 48.2817 1.84492 48.6729C1.46731 49.0642 1.46404 49.702 1.83771 50.0975C2.29467 50.5813 2.8306 50.9558 3.43059 51.2107C3.54899 51.2611 3.67144 51.2849 3.79186 51.2849C4.17187 51.2849 4.53179 51.0475 4.68357 50.656C4.88315 50.1406 4.64606 49.5532 4.15379 49.344Z" fill="#FFFEFE"/>
<path d="M15.2976 49.5598H13.7587C13.2276 49.5598 12.7969 50.0108 12.7969 50.5671C12.7969 51.1235 13.2276 51.5744 13.7587 51.5744H15.2976C15.8287 51.5744 16.2595 51.1235 16.2595 50.5671C16.2595 50.0108 15.8287 49.5598 15.2976 49.5598Z" fill="#FFFEFE"/>
<path d="M26.8396 49.5598H25.3007C24.7696 49.5598 24.3389 50.0108 24.3389 50.5671C24.3389 51.1235 24.7696 51.5744 25.3007 51.5744H26.8396C27.3708 51.5744 27.8015 51.1235 27.8015 50.5671C27.8015 50.0108 27.3707 49.5598 26.8396 49.5598Z" fill="#FFFEFE"/>
<path d="M21.0686 49.5598H19.5297C18.9986 49.5598 18.5679 50.0108 18.5679 50.5671C18.5679 51.1235 18.9986 51.5744 19.5297 51.5744H21.0686C21.5997 51.5744 22.0305 51.1235 22.0305 50.5671C22.0305 50.0108 21.5997 49.5598 21.0686 49.5598Z" fill="#FFFEFE"/>
<path d="M43.1034 22.0601C42.8505 22.0601 42.6023 22.1679 42.4235 22.3553C42.2446 22.5426 42.1416 22.8025 42.1416 23.0674C42.1416 23.3324 42.2445 23.5922 42.4235 23.7796C42.6023 23.967 42.8506 24.0747 43.1034 24.0747C43.3565 24.0747 43.6046 23.967 43.7834 23.7796C43.9623 23.5922 44.0653 23.3324 44.0653 23.0674C44.0653 22.8025 43.9624 22.5426 43.7834 22.3553C43.6046 22.1678 43.3565 22.0601 43.1034 22.0601Z" fill="#FFFEFE"/>
</g>
<defs>
<clipPath id="clip0">
<rect width="49.2456" height="51.5745" fill="white" transform="translate(0.569336 -0.000183105)"/>
</clipPath>
</defs>
</svg>
