<svg width="44" height="45" viewBox="0 0 44 45" fill="none" xmlns="http://www.w3.org/2000/svg">
<g clip-path="url(#clip0)">
<path d="M22 44.2418C34.1532 44.2418 44 34.3408 44 22.1209C44 9.90094 34.1532 0 22 0C9.84683 0 0 9.90094 0 22.1209C0 34.3408 9.84683 44.2418 22 44.2418ZM10.0668 21.6416L31.2785 13.4182C32.263 13.0605 33.1228 13.6596 32.8038 15.1565L32.8057 15.1546L29.194 32.2633C28.9263 33.4763 28.2095 33.7712 27.2067 33.1998L21.7067 29.124L19.0538 31.6937C18.7605 31.9886 18.513 32.2375 17.9447 32.2375L18.3352 26.6096L28.5285 17.3501C28.9722 16.9575 28.4295 16.7363 27.8447 17.1271L15.2478 25.1017L9.8175 23.3984C8.63867 23.0223 8.613 22.213 10.0668 21.6416Z" fill="black"/>
</g>
<defs>
<clipPath id="clip0">
<rect width="44" height="44.2418" fill="white"/>
</clipPath>
</defs>
</svg>
