<svg width="54" height="54" viewBox="0 0 54 54" fill="none" xmlns="http://www.w3.org/2000/svg">
<g clip-path="url(#clip0)">
<path d="M39.4777 53.0107C31.5097 53.0107 25.0269 46.5699 25.0269 38.6536C25.0269 30.7373 31.5097 24.2964 39.4777 24.2964C47.4457 24.2964 53.9286 30.7373 53.9286 38.6536C53.9286 46.5699 47.4457 53.0107 39.4777 53.0107ZM39.4777 26.5052C32.7347 26.5052 27.2501 31.9565 27.2501 38.6536C27.2501 45.3506 32.7347 50.8019 39.4777 50.8019C46.2207 50.8019 51.7054 45.3506 51.7054 38.6536C51.7054 31.9565 46.2207 26.5052 39.4777 26.5052Z" fill="white"/>
<path d="M37.2549 44.1755C36.9614 44.1755 36.6768 44.0585 36.4678 43.853L32.0214 39.4355C31.5879 39.0048 31.5879 38.3046 32.0214 37.8739C32.455 37.4432 33.1597 37.4432 33.5932 37.8739L37.1993 41.4565L44.1979 33.5093C44.6026 33.0477 45.3051 33.0035 45.7675 33.4055C46.23 33.8075 46.2766 34.5033 45.872 34.9627L38.0908 43.7978C37.8885 44.0275 37.5972 44.1645 37.2904 44.1755C37.2793 44.1755 37.266 44.1755 37.2549 44.1755V44.1755Z" fill="white"/>
<path d="M21.6923 46.3843H6.1298C3.06622 46.3843 0.571777 43.9082 0.571777 40.8623V12.1481C0.571777 9.10221 3.06622 6.62616 6.1298 6.62616H10.5762C11.1898 6.62616 11.6878 7.12093 11.6878 7.73055C11.6878 8.34018 11.1898 8.83494 10.5762 8.83494H6.1298C4.29121 8.83494 2.79499 10.3215 2.79499 12.1481V40.8623C2.79499 42.689 4.29121 44.1755 6.1298 44.1755H21.6923C22.3059 44.1755 22.8039 44.6703 22.8039 45.2799C22.8039 45.8895 22.3059 46.3843 21.6923 46.3843Z" fill="white"/>
<path d="M37.2549 19.8789C36.6413 19.8789 36.1433 19.3841 36.1433 18.7745V12.1481C36.1433 10.3215 34.6471 8.83494 32.8085 8.83494H28.3621C27.7485 8.83494 27.2505 8.34018 27.2505 7.73055C27.2505 7.12093 27.7485 6.62616 28.3621 6.62616H32.8085C35.8721 6.62616 38.3665 9.10221 38.3665 12.1481V18.7745C38.3665 19.3841 37.8685 19.8789 37.2549 19.8789Z" fill="white"/>
<path d="M26.1389 13.2525H12.7997C10.9611 13.2525 9.46484 11.766 9.46484 9.93935V5.52178C9.46484 4.91215 9.96284 4.41739 10.5764 4.41739H14.0224C14.5404 1.89937 16.7837 -0.000183105 19.4693 -0.000183105C22.1549 -0.000183105 24.3981 1.89937 24.9162 4.41739H28.3621C28.9757 4.41739 29.4737 4.91215 29.4737 5.52178V9.93935C29.4737 11.766 27.9775 13.2525 26.1389 13.2525ZM11.6881 6.62617V9.93935C11.6881 10.5468 12.1861 11.0437 12.7997 11.0437H26.1389C26.7525 11.0437 27.2505 10.5468 27.2505 9.93935V6.62617H23.9157C23.3021 6.62617 22.8041 6.1314 22.8041 5.52178C22.8041 3.69511 21.3079 2.2086 19.4693 2.2086C17.6307 2.2086 16.1345 3.69511 16.1345 5.52178C16.1345 6.1314 15.6365 6.62617 15.0229 6.62617H11.6881Z" fill="white"/>
<path d="M30.5849 19.8789H8.35282C7.73921 19.8789 7.24121 19.3841 7.24121 18.7745C7.24121 18.1649 7.73921 17.6701 8.35282 17.6701H30.5849C31.1985 17.6701 31.6965 18.1649 31.6965 18.7745C31.6965 19.3841 31.1985 19.8789 30.5849 19.8789Z" fill="white"/>
<path d="M23.9153 26.5052H8.35282C7.73921 26.5052 7.24121 26.0105 7.24121 25.4008C7.24121 24.7912 7.73921 24.2964 8.35282 24.2964H23.9153C24.5289 24.2964 25.0269 24.7912 25.0269 25.4008C25.0269 26.0105 24.5289 26.5052 23.9153 26.5052Z" fill="white"/>
<path d="M19.4689 33.1316H8.35282C7.73921 33.1316 7.24121 32.6368 7.24121 32.0272C7.24121 31.4176 7.73921 30.9228 8.35282 30.9228H19.4689C20.0825 30.9228 20.5805 31.4176 20.5805 32.0272C20.5805 32.6368 20.0825 33.1316 19.4689 33.1316Z" fill="white"/>
</g>
<defs>
<clipPath id="clip0">
<rect width="53.357" height="53.0108" fill="white" transform="translate(0.571777 -0.000183105)"/>
</clipPath>
</defs>
</svg>
