<svg width="54" height="54" viewBox="0 0 54 54" fill="none" xmlns="http://www.w3.org/2000/svg">
<g clip-path="url(#clip0)">
<path d="M39.375 53.0109C31.311 53.0109 24.75 46.57 24.75 38.6537C24.75 30.7375 31.311 24.2966 39.375 24.2966C47.439 24.2966 54 30.7375 54 38.6537C54 46.57 47.439 53.0109 39.375 53.0109ZM39.375 26.5054C32.5508 26.5054 27 31.9567 27 38.6537C27 45.3508 32.5508 50.8021 39.375 50.8021C46.1993 50.8021 51.75 45.3508 51.75 38.6537C51.75 31.9567 46.1993 26.5054 39.375 26.5054Z" fill="black"/>
<path d="M37.1251 44.1757C36.8281 44.1757 36.5401 44.0586 36.3286 43.8532L31.8286 39.4357C31.3898 39.0049 31.3898 38.3048 31.8286 37.874C32.2673 37.4433 32.9806 37.4433 33.4193 37.874L37.0688 41.4567L44.1518 33.5095C44.5613 33.0479 45.2723 33.0037 45.7403 33.4057C46.2083 33.8077 46.2556 34.5034 45.8461 34.9629L37.9711 43.798C37.7663 44.0277 37.4716 44.1647 37.1611 44.1757C37.1498 44.1757 37.1363 44.1757 37.1251 44.1757Z" fill="black"/>
<path d="M21.375 46.3845H5.625C2.5245 46.3845 0 43.9084 0 40.8625V12.1483C0 9.10239 2.5245 6.62634 5.625 6.62634H10.125C10.746 6.62634 11.25 7.12111 11.25 7.73074C11.25 8.34036 10.746 8.83513 10.125 8.83513H5.625C3.76425 8.83513 2.25 10.3216 2.25 12.1483V40.8625C2.25 42.6892 3.76425 44.1757 5.625 44.1757H21.375C21.996 44.1757 22.5 44.6704 22.5 45.2801C22.5 45.8897 21.996 46.3845 21.375 46.3845Z" fill="black"/>
<path d="M37.125 19.879C36.504 19.879 36 19.3843 36 18.7747V12.1483C36 10.3216 34.4857 8.83513 32.625 8.83513H28.125C27.504 8.83513 27 8.34036 27 7.73073C27 7.12111 27.504 6.62634 28.125 6.62634H32.625C35.7255 6.62634 38.25 9.10239 38.25 12.1483V18.7747C38.25 19.3843 37.746 19.879 37.125 19.879Z" fill="black"/>
<path d="M25.875 13.2527H12.375C10.5142 13.2527 9 11.7662 9 9.93953V5.52196C9 4.91234 9.504 4.41757 10.125 4.41757H13.6125C14.1367 1.89955 16.407 0 19.125 0C21.843 0 24.1132 1.89955 24.6375 4.41757H28.125C28.746 4.41757 29.25 4.91234 29.25 5.52196V9.93953C29.25 11.7662 27.7357 13.2527 25.875 13.2527ZM11.25 6.62635V9.93953C11.25 10.5469 11.754 11.0439 12.375 11.0439H25.875C26.496 11.0439 27 10.5469 27 9.93953V6.62635H23.625C23.004 6.62635 22.5 6.13159 22.5 5.52196C22.5 3.6953 20.9857 2.20878 19.125 2.20878C17.2642 2.20878 15.75 3.6953 15.75 5.52196C15.75 6.13159 15.246 6.62635 14.625 6.62635H11.25Z" fill="black"/>
<path d="M30.375 19.8791H7.875C7.254 19.8791 6.75 19.3843 6.75 18.7747C6.75 18.1651 7.254 17.6703 7.875 17.6703H30.375C30.996 17.6703 31.5 18.1651 31.5 18.7747C31.5 19.3843 30.996 19.8791 30.375 19.8791Z" fill="black"/>
<path d="M23.625 26.5054H7.875C7.254 26.5054 6.75 26.0106 6.75 25.401C6.75 24.7914 7.254 24.2966 7.875 24.2966H23.625C24.246 24.2966 24.75 24.7914 24.75 25.401C24.75 26.0106 24.246 26.5054 23.625 26.5054Z" fill="black"/>
<path d="M19.125 33.1318H7.875C7.254 33.1318 6.75 32.637 6.75 32.0274C6.75 31.4177 7.254 30.923 7.875 30.923H19.125C19.746 30.923 20.25 31.4177 20.25 32.0274C20.25 32.637 19.746 33.1318 19.125 33.1318Z" fill="black"/>
</g>
<defs>
<clipPath id="clip0">
<rect width="54" height="53.0108" fill="white"/>
</clipPath>
</defs>
</svg>
